#!OML:ASF F:\VICON\USERDATA\INSTALL\rory3\rory3.ASF
:FULLY-SPECIFIED
:DEGREES
2746
root 0.891895 17.3716 -1.07674 56.1738 -0.853545 -0.320747
lowerback 38.0657 -0.779535 7.06154
upperback 0.718541 2.65174 3.14667
thorax -18.1818 0.621861 -1.462
lowerneck -1.8568 -0.909511 2.542
upperneck -30.1718 -3.96601 -9.98507
head -9.40067 -1.24198 -3.66817
rclavicle -1.74931e-014 -2.0276e-014
rhumerus -29.3269 8.44286 -79.7394
rradius 139.696
rwrist 33.0211
rhand -3.12889 5.29428
rfingers 7.12502
rthumb 22.5903 -23.4039
lclavicle -1.74931e-014 -2.0276e-014
lhumerus -32.9206 -9.21469 88.3738
lradius 125.053
lwrist -31.7863
lhand -15.0824 15.9403
lfingers 7.12502
lthumb 11.0853 45.6275
rfemur -75.7959 8.61353 -5.84753
rtibia 20.5912
rfoot -8.9342 -33.088
rtoes 15.4013
lfemur -78.1132 -4.78363 -10.3116
ltibia 29.0487
lfoot 1.49782 14.3408
ltoes -19.8244
2747
root 0.891201 17.3732 -1.0781 56.1045 -0.906001 -0.41798
lowerback 38.2059 -0.723736 6.99443
upperback 0.768047 2.70549 3.16895
thorax -18.1778 0.649937 -1.42734
lowerneck -1.95002 -0.890629 2.54812
upperneck -30.1179 -3.93422 -9.99375
head -9.36122 -1.23054 -3.67329
rclavicle -5.56597e-015 1.68967e-014
rhumerus -29.2661 8.39994 -79.7096
rradius 139.637
rwrist 33.0241
rhand -3.17552 5.41592
rfingers 7.12502
rthumb 22.5455 -23.2877
lclavicle -5.56597e-015 1.68967e-014
lhumerus -32.9005 -9.19865 88.3277
lradius 125.082
lwrist -31.8553
lhand -15.0243 15.9388
lfingers 7.12502
lthumb 11.1413 45.623
rfemur -75.8782 8.67571 -5.68051
rtibia 20.8055
rfoot -8.80843 -32.9344
rtoes 15.0992
lfemur -78.042 -4.64291 -10.3715
ltibia 29.0804
lfoot 1.41435 14.2592
ltoes -19.3779
2748
root 0.893101 17.374 -1.07976 56.0572 -0.946143 -0.427192
lowerback 38.3094 -0.691899 6.94905
upperback 0.795979 2.73765 3.19321
thorax -18.1862 0.667192 -1.39172
lowerneck -1.95901 -0.886236 2.5224
upperneck -30.0648 -3.93067 -10.0181
head -9.33981 -1.22493 -3.67602
rclavicle -6.36111e-015 -2.24627e-014
rhumerus -29.2726 8.33985 -79.6103
rradius 139.578
rwrist 33.0131
rhand -3.31954 5.61245
rfingers 7.12502
rthumb 22.4073 -23.1079
lclavicle -6.36111e-015 -2.24627e-014
lhumerus -32.9 -9.18839 88.3039
lradius 125.069
lwrist -31.888
lhand -15.0003 15.9673
lfingers 7.12502
lthumb 11.1644 45.6502
rfemur -75.894 8.62896 -5.53055
rtibia 20.9496
rfoot -8.69646 -32.7252
rtoes 15.0353
lfemur -78.0135 -4.62548 -10.4215
ltibia 29.1347
lfoot 1.38036 14.255
ltoes -19.1865
2749
root 0.898427 17.368 -1.08074 56.0913 -0.895756 -0.346353
lowerback 38.3145 -0.741198 7.04452
upperback 0.803433 2.71656 3.19148
thorax -18.1739 0.651342 -1.43332
lowerneck -1.92977 -0.895016 2.54149
upperneck -30.0726 -3.9511 -10.047
head -9.35036 -1.2331 -3.68849
rclavicle 2.14687e-014 3.598e-014
rhumerus -29.2961 8.25596 -79.5253
rradius 139.559
rwrist 32.9524
rhand -3.41193 5.73009
rfingers 7.12502
rthumb 22.3186 -23.0009
lclavicle 2.14687e-014 3.598e-014
lhumerus -32.8462 -9.17463 88.2806
lradius 125.001
lwrist -31.9257
lhand -15.0359 15.8293
lfingers 7.12502
lthumb 11.1302 45.5141
rfemur -75.9174 8.5017 -5.5113
rtibia 21.0251
rfoot -8.65592 -32.726
rtoes 14.9145
lfemur -78.1102 -4.66602 -10.5613
ltibia 29.1967
lfoot 1.37106 14.1615
ltoes -19.3609
2750
root 0.900983 17.3647 -1.08205 56.0928 -0.833338 -0.320605
lowerback 38.3348 -0.769189 7.1233
upperback 0.84617 2.71738 3.21213
thorax -18.1245 0.648362 -1.45109
lowerneck -1.9342 -0.915679 2.5656
upperneck -30.1426 -3.99335 -10.065
head -9.37934 -1.25335 -3.69853
rclavicle 1.82882e-014 5.60573e-014
rhumerus -29.2712 8.18648 -79.4634
rradius 139.548
rwrist 32.8537
rhand -3.42836 5.73603
rfingers 7.12502
rthumb 22.3028 -22.9969
lclavicle 1.82882e-014 5.60573e-014
lhumerus -32.7743 -9.17516 88.276
lradius 124.967
lwrist -31.9726
lhand -15.0579 15.8814
lfingers 7.12502
lthumb 11.1089 45.5674
rfemur -75.9451 8.47836 -5.53701
rtibia 21.0921
rfoot -8.75238 -32.801
rtoes 15.1105
lfemur -78.1584 -4.63772 -10.6968
ltibia 29.2464
lfoot 1.37248 14.0019
ltoes -19.8349
2751
root 0.901963 17.3663 -1.08341 56.0563 -0.857432 -0.322292
lowerback 38.4213 -0.748943 7.09061
upperback 0.893576 2.73634 3.23242
thorax -18.1013 0.660545 -1.42003
lowerneck -1.95857 -0.923118 2.57649
upperneck -30.1467 -4.01005 -10.0835
head -9.37811 -1.26177 -3.70615
rclavicle -1.51076e-014 -2.78299e-014
rhumerus -29.2134 8.11779 -79.3755
rradius 139.515
rwrist 32.7328
rhand -3.38164 5.74501
rfingers 7.12502
rthumb 22.3477 -22.9825
lclavicle -1.51076e-014 -2.78299e-014
lhumerus -32.73 -9.17998 88.2863
lradius 124.939
lwrist -31.9277
lhand -15.1527 16.0166
lfingers 7.12502
lthumb 11.0174 45.7075
rfemur -75.9392 8.48976 -5.52596
rtibia 21.1248
rfoot -8.84276 -32.7577
rtoes 15.2962
lfemur -78.1449 -4.59229 -10.7989
ltibia 29.2943
lfoot 1.35863 13.9199
ltoes -19.9493
2752
root 0.904054 17.3689 -1.08546 56.0071 -0.885983 -0.368049
lowerback 38.5489 -0.71809 7.07149
upperback 0.921722 2.7784 3.24554
thorax -18.1157 0.67864 -1.41543
lowerneck -2.00018 -0.928195 2.56136
upperneck -30.0601 -4.00537 -10.0664
head -9.33767 -1.26289 -3.69485
rclavicle 1.59028e-015 5.96354e-015
rhumerus -29.226 8.06039 -79.3009
rradius 139.453
rwrist 32.599
rhand -3.50815 5.76134
rfingers 7.12502
rthumb 22.2262 -22.9807
lclavicle 1.59028e-015 5.96354e-015
lhumerus -32.7434 -9.19056 88.2681
lradius 124.956
lwrist -31.878
lhand -15.1974 16.125
lfingers 7.12502
lthumb 10.9744 45.8182
rfemur -75.8903 8.52018 -5.45405
rtibia 21.0945
rfoot -9.01653 -32.6674
rtoes 15.7205
lfemur -78.116 -4.55475 -10.7961
ltibia 29.3388
lfoot 1.33676 13.8783
ltoes -19.7423
2753
root 0.906788 17.3715 -1.08731 55.9791 -0.870578 -0.41532
lowerback 38.6653 -0.713386 7.11861
upperback 0.940137 2.81334 3.24449
thorax -18.1329 0.687616 -1.45792
lowerneck -1.98594 -0.929607 2.58113
upperneck -30.0773 -3.99823 -10.0333
head -9.34573 -1.26418 -3.68746
rclavicle 7.15625e-015 1.19271e-015
rhumerus -29.2894 7.97971 -79.2493
rradius 139.431
rwrist 32.431
rhand -3.62894 5.87786
rfingers 7.12502
rthumb 22.1102 -22.878
lclavicle 7.15625e-015 1.19271e-015
lhumerus -32.7336 -9.1632 88.2134
lradius 124.958
lwrist -31.8436
lhand -15.1639 16.1032
lfingers 7.12502
lthumb 11.0066 45.7946
rfemur -75.8396 8.56267 -5.42631
rtibia 21.0315
rfoot -9.11723 -32.6756
rtoes 16.1283
lfemur -78.1 -4.50134 -10.8249
ltibia 29.3683
lfoot 1.30919 13.8139
ltoes -19.6396
2754
root 0.908334 17.3718 -1.0883 56.0088 -0.853162 -0.423904
lowerback 38.71 -0.709274 7.1326
upperback 0.96631 2.83055 3.26659
thorax -18.117 0.694981 -1.44836
lowerneck -1.93781 -0.943691 2.53396
upperneck -30.185 -4.00964 -9.94423
head -9.39342 -1.26959 -3.64938
rclavicle 1.27222e-014 1.78906e-015
rhumerus -29.2912 7.91714 -79.1506
rradius 139.412
rwrist 32.2892
rhand -3.66574 5.98871
rfingers 7.12502
rthumb 22.0749 -22.7713
lclavicle 1.27222e-014 1.78906e-015
lhumerus -32.7046 -9.10189 88.2101
lradius 124.951
lwrist -31.7893
lhand -15.2712 16.1742
lfingers 7.12502
lthumb 10.9032 45.8711
rfemur -75.837 8.56412 -5.44659
rtibia 20.9601
rfoot -8.89185 -32.7528
rtoes 15.8183
lfemur -78.1402 -4.43969 -10.9269
ltibia 29.3791
lfoot 1.28761 13.7134
ltoes -19.7339
2755
root 0.910171 17.3709 -1.08873 56.0483 -0.79861 -0.447495
lowerback 38.7681 -0.725852 7.16782
upperback 0.973818 2.8391 3.31272
thorax -18.1305 0.696843 -1.41882
lowerneck -1.86459 -0.947207 2.44129
upperneck -30.2931 -4.0041 -9.83821
head -9.44388 -1.26256 -3.59818
rclavicle 1.90833e-014 5.38706e-014
rhumerus -29.3002 7.90237 -79.0664
rradius 139.403
rwrist 32.2064
rhand -3.6991 6.02627
rfingers 7.12502
rthumb 22.0429 -22.7375
lclavicle 1.90833e-014 5.38706e-014
lhumerus -32.7186 -8.97592 88.2293
lradius 124.942
lwrist -31.8468
lhand -15.3723 16.122
lfingers 7.12502
lthumb 10.8057 45.8241
rfemur -75.8376 8.59854 -5.5171
rtibia 20.8822
rfoot -8.97006 -32.8614
rtoes 15.905
lfemur -78.1849 -4.38315 -10.978
ltibia 29.377
lfoot 1.32276 13.5792
ltoes -19.9252
2756
root 0.910617 17.3716 -1.08915 56.0647 -0.826941 -0.463033
lowerback 38.8483 -0.696553 7.11734
upperback 0.999539 2.86192 3.32813
thorax -18.1324 0.710542 -1.38613
lowerneck -1.88597 -0.944538 2.45111
upperneck -30.3131 -4.00242 -9.84068
head -9.44732 -1.26298 -3.60167
rclavicle 1.35174e-014 -1.03368e-014
rhumerus -29.2956 7.82654 -78.9912
rradius 139.412
rwrist 32.2513
rhand -3.55333 6.06487
rfingers 7.12502
rthumb 22.1828 -22.6823
lclavicle 1.35174e-014 -1.03368e-014
lhumerus -32.6986 -8.92101 88.2458
lradius 124.915
lwrist -31.8821
lhand -15.5104 16.0414
lfingers 7.12502
lthumb 10.6725 45.7504
rfemur -75.8245 8.66405 -5.66457
rtibia 20.781
rfoot -9.53327 -32.8615
rtoes 17.2773
lfemur -78.1966 -4.32196 -11.0588
ltibia 29.372
lfoot 1.36337 13.4866
ltoes -20.0572
2757
root 0.907056 17.3733 -1.08954 56.0871 -0.926212 -0.542912
lowerback 38.9536 -0.604213 6.96261
upperback 1.0194 2.9169 3.32492
thorax -18.1554 0.743699 -1.33584
lowerneck -1.90611 -0.932201 2.52744
upperneck -30.3436 -3.98286 -9.84656
head -9.4542 -1.26177 -3.61989
rclavicle 2.38542e-015 5.56597e-015
rhumerus -29.3111 7.70855 -78.9412
rradius 139.413
rwrist 32.2757
rhand -3.03952 6.07318
rfingers 7.12502
rthumb 22.676 -22.6146
lclavicle 2.38542e-015 5.56597e-015
lhumerus -32.6856 -8.84512 88.2256
lradius 124.899
lwrist -31.9508
lhand -15.4956 15.9857
lfingers 7.12502
lthumb 10.6867 45.6939
rfemur -75.8625 8.84358 -5.87957
rtibia 20.6598
rfoot -9.71548 -33.0225
rtoes 17.6211
lfemur -78.193 -4.18495 -11.1095
ltibia 29.3641
lfoot 1.34618 13.4847
ltoes -20.033
2758
root 0.905048 17.374 -1.09035 56.1689 -0.921276 -0.66115
lowerback 39.0209 -0.547002 6.92729
upperback 1.02683 2.98713 3.3711
thorax -18.1739 0.775529 -1.29921
lowerneck -1.97755 -0.923628 2.54031
upperneck -30.3401 -3.97048 -9.85033
head -9.43888 -1.2594 -3.62461
rclavicle 2.78299e-014 4.05521e-014
rhumerus -29.2886 7.62482 -78.8406
rradius 139.363
rwrist 32.2532
rhand -2.54567 5.94284
rfingers 7.12502
rthumb 23.1499 -22.6862
lclavicle 2.78299e-014 4.05521e-014
lhumerus -32.7002 -8.75987 88.1997
lradius 124.937
lwrist -31.9802
lhand -15.4038 16.0056
lfingers 7.12502
lthumb 10.7753 45.7093
rfemur -75.9433 9.00191 -6.01494
rtibia 20.5394
rfoot -9.5301 -33.2843
rtoes 16.9722
lfemur -78.2519 -4.04741 -11.0727
ltibia 29.3499
lfoot 1.36695 13.4342
ltoes -20.229
2759
root 0.905872 17.3747 -1.09139 56.244 -0.936082 -0.66112
lowerback 39.1036 -0.539058 6.86397
upperback 1.03594 2.985 3.41447
thorax -18.2019 0.780392 -1.21662
lowerneck -2.14961 -0.881623 2.5017
upperneck -30.2523 -3.91735 -9.90537
head -9.37097 -1.23089 -3.63933
rclavicle 7.15625e-015 -8.54774e-015
rhumerus -29.2661 7.63111 -78.7353
rradius 139.321
rwrist 32.2794
rhand -2.78657 6.01598
rfingers 7.12502
rthumb 22.9188 -22.6419
lclavicle 7.15625e-015 -8.54774e-015
lhumerus -32.6957 -8.65842 88.1878
lradius 124.936
lwrist -31.9497
lhand -15.4263 15.9872
lfingers 7.12502
lthumb 10.7536 45.6919
rfemur -76.0114 9.07971 -6.27882
rtibia 20.4846
rfoot -9.63572 -33.5098
rtoes 16.9871
lfemur -78.3009 -4.0056 -11.1308
ltibia 29.3082
lfoot 1.34628 13.3939
ltoes -20.0394
